<mxfile host="app.diagrams.net" modified="2024-01-05T15:51:22.483Z" agent="Mozilla/5.0 (Windows NT 10.0; Win64; x64) AppleWebKit/537.36 (KHTML, like Gecko) Chrome/120.0.0.0 Safari/537.36" etag="lQ6LHPGmDnDiTYv2PLp3" version="22.1.17" type="github">
  <diagram id="C5RBs43oDa-KdzZeNtuy" name="Page-1">
    <mxGraphModel dx="1313" dy="1822" grid="1" gridSize="10" guides="1" tooltips="1" connect="1" arrows="1" fold="1" page="1" pageScale="1" pageWidth="827" pageHeight="1169" math="0" shadow="0">
      <root>
        <mxCell id="WIyWlLk6GJQsqaUBKTNV-0" />
        <mxCell id="WIyWlLk6GJQsqaUBKTNV-1" parent="WIyWlLk6GJQsqaUBKTNV-0" />
        <mxCell id="K_al03ZsBDrpv3xJVfYm-5" value="" style="edgeStyle=orthogonalEdgeStyle;rounded=0;orthogonalLoop=1;jettySize=auto;html=1;" edge="1" parent="WIyWlLk6GJQsqaUBKTNV-1" source="K_al03ZsBDrpv3xJVfYm-0" target="K_al03ZsBDrpv3xJVfYm-4">
          <mxGeometry relative="1" as="geometry" />
        </mxCell>
        <mxCell id="K_al03ZsBDrpv3xJVfYm-0" value="Start Button" style="rounded=1;whiteSpace=wrap;html=1;fillColor=#0050ef;fontColor=#ffffff;strokeColor=#001DBC;" vertex="1" parent="WIyWlLk6GJQsqaUBKTNV-1">
          <mxGeometry x="20" y="170" width="166" height="90" as="geometry" />
        </mxCell>
        <mxCell id="K_al03ZsBDrpv3xJVfYm-3" value="" style="edgeStyle=orthogonalEdgeStyle;rounded=0;orthogonalLoop=1;jettySize=auto;html=1;" edge="1" parent="WIyWlLk6GJQsqaUBKTNV-1" source="K_al03ZsBDrpv3xJVfYm-1" target="K_al03ZsBDrpv3xJVfYm-2">
          <mxGeometry relative="1" as="geometry" />
        </mxCell>
        <mxCell id="K_al03ZsBDrpv3xJVfYm-1" value="How to play Button" style="rounded=1;whiteSpace=wrap;html=1;fillColor=#0050ef;fontColor=#ffffff;strokeColor=#001DBC;" vertex="1" parent="WIyWlLk6GJQsqaUBKTNV-1">
          <mxGeometry x="20" y="280" width="166" height="90" as="geometry" />
        </mxCell>
        <mxCell id="K_al03ZsBDrpv3xJVfYm-2" value="howToPlay():&lt;br&gt;A pop up instruction box will appear on click" style="whiteSpace=wrap;html=1;rounded=1;fillColor=#008a00;fontColor=#ffffff;strokeColor=#005700;" vertex="1" parent="WIyWlLk6GJQsqaUBKTNV-1">
          <mxGeometry x="40" y="430" width="157" height="85" as="geometry" />
        </mxCell>
        <mxCell id="K_al03ZsBDrpv3xJVfYm-9" value="" style="edgeStyle=orthogonalEdgeStyle;rounded=0;orthogonalLoop=1;jettySize=auto;html=1;" edge="1" parent="WIyWlLk6GJQsqaUBKTNV-1" source="K_al03ZsBDrpv3xJVfYm-4" target="K_al03ZsBDrpv3xJVfYm-8">
          <mxGeometry relative="1" as="geometry" />
        </mxCell>
        <mxCell id="K_al03ZsBDrpv3xJVfYm-19" value="" style="edgeStyle=orthogonalEdgeStyle;rounded=0;orthogonalLoop=1;jettySize=auto;html=1;" edge="1" parent="WIyWlLk6GJQsqaUBKTNV-1" source="K_al03ZsBDrpv3xJVfYm-4" target="K_al03ZsBDrpv3xJVfYm-18">
          <mxGeometry relative="1" as="geometry" />
        </mxCell>
        <mxCell id="K_al03ZsBDrpv3xJVfYm-21" value="" style="edgeStyle=orthogonalEdgeStyle;rounded=0;orthogonalLoop=1;jettySize=auto;html=1;" edge="1" parent="WIyWlLk6GJQsqaUBKTNV-1" source="K_al03ZsBDrpv3xJVfYm-4" target="K_al03ZsBDrpv3xJVfYm-20">
          <mxGeometry relative="1" as="geometry" />
        </mxCell>
        <mxCell id="K_al03ZsBDrpv3xJVfYm-23" value="" style="edgeStyle=orthogonalEdgeStyle;rounded=0;orthogonalLoop=1;jettySize=auto;html=1;" edge="1" parent="WIyWlLk6GJQsqaUBKTNV-1" source="K_al03ZsBDrpv3xJVfYm-4" target="K_al03ZsBDrpv3xJVfYm-22">
          <mxGeometry relative="1" as="geometry" />
        </mxCell>
        <mxCell id="K_al03ZsBDrpv3xJVfYm-27" value="" style="edgeStyle=orthogonalEdgeStyle;rounded=0;orthogonalLoop=1;jettySize=auto;html=1;" edge="1" parent="WIyWlLk6GJQsqaUBKTNV-1" source="K_al03ZsBDrpv3xJVfYm-4" target="K_al03ZsBDrpv3xJVfYm-26">
          <mxGeometry relative="1" as="geometry" />
        </mxCell>
        <mxCell id="K_al03ZsBDrpv3xJVfYm-4" value="startGame():&amp;nbsp;&lt;br&gt;Loads the game to game page and starts the game" style="whiteSpace=wrap;html=1;rounded=1;fillColor=#fa6800;fontColor=#000000;strokeColor=#C73500;" vertex="1" parent="WIyWlLk6GJQsqaUBKTNV-1">
          <mxGeometry x="340" y="150" width="196" height="130" as="geometry" />
        </mxCell>
        <mxCell id="K_al03ZsBDrpv3xJVfYm-11" value="" style="edgeStyle=orthogonalEdgeStyle;rounded=0;orthogonalLoop=1;jettySize=auto;html=1;" edge="1" parent="WIyWlLk6GJQsqaUBKTNV-1" source="K_al03ZsBDrpv3xJVfYm-8" target="K_al03ZsBDrpv3xJVfYm-10">
          <mxGeometry relative="1" as="geometry" />
        </mxCell>
        <mxCell id="K_al03ZsBDrpv3xJVfYm-15" value="" style="edgeStyle=orthogonalEdgeStyle;rounded=0;orthogonalLoop=1;jettySize=auto;html=1;" edge="1" parent="WIyWlLk6GJQsqaUBKTNV-1" source="K_al03ZsBDrpv3xJVfYm-8" target="K_al03ZsBDrpv3xJVfYm-14">
          <mxGeometry relative="1" as="geometry" />
        </mxCell>
        <mxCell id="K_al03ZsBDrpv3xJVfYm-17" value="" style="edgeStyle=orthogonalEdgeStyle;rounded=0;orthogonalLoop=1;jettySize=auto;html=1;" edge="1" parent="WIyWlLk6GJQsqaUBKTNV-1" source="K_al03ZsBDrpv3xJVfYm-8" target="K_al03ZsBDrpv3xJVfYm-16">
          <mxGeometry relative="1" as="geometry" />
        </mxCell>
        <mxCell id="K_al03ZsBDrpv3xJVfYm-8" value="Buttons - onclick():&lt;br&gt;The game page will have 4 clickable buttons at the bottom&lt;br&gt;" style="whiteSpace=wrap;html=1;rounded=1;fillColor=#008a00;fontColor=#ffffff;strokeColor=#005700;" vertex="1" parent="WIyWlLk6GJQsqaUBKTNV-1">
          <mxGeometry x="347" y="5" width="182" height="90" as="geometry" />
        </mxCell>
        <mxCell id="K_al03ZsBDrpv3xJVfYm-10" value="Home Button:&lt;br&gt;Takes the user back to the home page/Landing page" style="whiteSpace=wrap;html=1;rounded=1;fillColor=#647687;fontColor=#ffffff;strokeColor=#314354;" vertex="1" parent="WIyWlLk6GJQsqaUBKTNV-1">
          <mxGeometry x="160" y="-20" width="130" height="80" as="geometry" />
        </mxCell>
        <mxCell id="K_al03ZsBDrpv3xJVfYm-14" value="Next &amp;amp; Previous:&lt;br&gt;Takes the user to the next&amp;nbsp; or previous question" style="whiteSpace=wrap;html=1;rounded=1;fillColor=#647687;fontColor=#ffffff;strokeColor=#314354;" vertex="1" parent="WIyWlLk6GJQsqaUBKTNV-1">
          <mxGeometry x="347" y="-165" width="182" height="90" as="geometry" />
        </mxCell>
        <mxCell id="K_al03ZsBDrpv3xJVfYm-16" value="Quit button:&lt;br&gt;Prompts the user if to confirm if they want to quit game - if yes, loads back to home page" style="whiteSpace=wrap;html=1;rounded=1;fillColor=#647687;fontColor=#ffffff;strokeColor=#314354;" vertex="1" parent="WIyWlLk6GJQsqaUBKTNV-1">
          <mxGeometry x="590" y="-25" width="170" height="90" as="geometry" />
        </mxCell>
        <mxCell id="K_al03ZsBDrpv3xJVfYm-29" value="" style="edgeStyle=orthogonalEdgeStyle;rounded=0;orthogonalLoop=1;jettySize=auto;html=1;" edge="1" parent="WIyWlLk6GJQsqaUBKTNV-1" source="K_al03ZsBDrpv3xJVfYm-18" target="K_al03ZsBDrpv3xJVfYm-28">
          <mxGeometry relative="1" as="geometry" />
        </mxCell>
        <mxCell id="K_al03ZsBDrpv3xJVfYm-18" value="Timer at the top of the page will start counting down from 10" style="whiteSpace=wrap;html=1;rounded=1;fillColor=#647687;fontColor=#ffffff;strokeColor=#314354;" vertex="1" parent="WIyWlLk6GJQsqaUBKTNV-1">
          <mxGeometry x="610" y="80" width="180" height="100" as="geometry" />
        </mxCell>
        <mxCell id="K_al03ZsBDrpv3xJVfYm-20" value="displayQuestion() :&lt;br&gt;Displays currentQuestion()" style="whiteSpace=wrap;html=1;rounded=1;fillColor=#008a00;fontColor=#ffffff;strokeColor=#005700;" vertex="1" parent="WIyWlLk6GJQsqaUBKTNV-1">
          <mxGeometry x="800" y="170" width="160" height="90" as="geometry" />
        </mxCell>
        <mxCell id="K_al03ZsBDrpv3xJVfYm-25" value="" style="edgeStyle=orthogonalEdgeStyle;rounded=0;orthogonalLoop=1;jettySize=auto;html=1;" edge="1" parent="WIyWlLk6GJQsqaUBKTNV-1" source="K_al03ZsBDrpv3xJVfYm-22" target="K_al03ZsBDrpv3xJVfYm-24">
          <mxGeometry relative="1" as="geometry" />
        </mxCell>
        <mxCell id="K_al03ZsBDrpv3xJVfYm-22" value="displayanswer():&lt;br&gt;Gives the user 4 choices they can select&amp;nbsp; as the correct answer" style="whiteSpace=wrap;html=1;rounded=1;fillColor=#008a00;fontColor=#ffffff;strokeColor=#005700;" vertex="1" parent="WIyWlLk6GJQsqaUBKTNV-1">
          <mxGeometry x="610" y="300" width="182" height="110" as="geometry" />
        </mxCell>
        <mxCell id="K_al03ZsBDrpv3xJVfYm-24" value="checkAnswer() :&lt;br&gt;Checks the users answers with the correct answer" style="whiteSpace=wrap;html=1;rounded=1;fillColor=#008a00;fontColor=#ffffff;strokeColor=#005700;" vertex="1" parent="WIyWlLk6GJQsqaUBKTNV-1">
          <mxGeometry x="641" y="442.5" width="159" height="97.5" as="geometry" />
        </mxCell>
        <mxCell id="K_al03ZsBDrpv3xJVfYm-26" value="questionPage():&lt;br&gt;The number at the bottom of the question will change depending on which question the user is on" style="whiteSpace=wrap;html=1;rounded=1;fillColor=#008a00;fontColor=#ffffff;strokeColor=#005700;" vertex="1" parent="WIyWlLk6GJQsqaUBKTNV-1">
          <mxGeometry x="380" y="340" width="200" height="100" as="geometry" />
        </mxCell>
        <mxCell id="K_al03ZsBDrpv3xJVfYm-28" value="Timer animation:&lt;br&gt;The background color of the timer will dynamically change as the time is counting down" style="whiteSpace=wrap;html=1;rounded=1;fillColor=#647687;fontColor=#ffffff;strokeColor=#314354;" vertex="1" parent="WIyWlLk6GJQsqaUBKTNV-1">
          <mxGeometry x="850" y="10" width="223" height="85" as="geometry" />
        </mxCell>
      </root>
    </mxGraphModel>
  </diagram>
</mxfile>
